PathFileType	4	(X/Y/Z)	22_2_95_p0_0-212.trc
DataRate	CameraRate	NumFrames	NumMarkers	Units	OrigDataRate	OrigDataStartFrame	OrigNumFrames
59.0	59.0	5	27	m	59.0	106	213
Frame#	Time	RHip			RKnee			RAnkle			RBigToe			RSmallToe			RHeel			LHip			LKnee			LAnkle			LBigToe			LSmallToe			LHeel			Neck			Head			Nose			RShoulder			RElbow			RWrist			RThumb			RIndex			RPinky			LShoulder			LElbow			LWrist			LThumb			LIndex			LPinky			
		X1	Y1	Z1	X2	Y2	Z2	X3	Y3	Z3	X4	Y4	Z4	X5	Y5	Z5	X6	Y6	Z6	X7	Y7	Z7	X8	Y8	Z8	X9	Y9	Z9	X10	Y10	Z10	X11	Y11	Z11	X12	Y12	Z12	X13	Y13	Z13	X14	Y14	Z14	X15	Y15	Z15	X16	Y16	Z16	X17	Y17	Z17	X18	Y18	Z18	X19	Y19	Z19	X20	Y20	Z20	X21	Y21	Z21	X22	Y22	Z22	X23	Y23	Z23	X24	Y24	Z24	X25	Y25	Z25	X26	Y26	Z26	X27	Y27	Z27	
106	1.7966101694915255	0.27025223510307844	0.6546419581476359	1.0231439861234444	0.23887155682235323	0.6455711801606544	1.4155914011440625	0.27210022114020643	0.7971019378036772	1.836080985198798	0.23779413556457216	0.6610938095382638	1.8720095769472267	0.2980837635887246	0.695898401458803	1.8717918113657592	0.2798165624624125	0.9359332383800054	1.908130374813464	0.04310032643515457	0.654790105234655	1.0216195946621198	0.06482439481177667	0.65620085176837	1.4137589651090565	0.08772555347988169	0.8709434599865836	1.850989582226554	0.10673511117110869	0.6989977316210714	1.8853770133018817	0.053597868837856805	0.6833549430443774	1.8669799198118608	0.09891264270868842	0.9227171474375527	1.889566900627668	0.09849360834447685	0.35189963165260346	0.5104830055849023	0.09261932668604264	0.21968987005513504	0.28688661744100064	0.07579235308419746	0.20121930956547485	0.43075314886391736	0.27357999137298034	0.3641525633298118	0.555049665399405	0.38832811928061023	0.5943644354539914	0.7581090498546964	0.2930317995092808	0.37668558404259694	0.840776522497946	0.1876742277304691	0.22990878839419746	0.8511927944828069	0.19594417824248805	0.24505146981133227	0.869726465588125	0.23328841404858836	0.2951877043181419	0.8990619510883033	-0.048814385119982616	0.434095387500756	0.5671415655500092	-0.09700808901195505	0.6036627115302777	0.7569583560488337	-0.07083407929999834	0.3967811008467642	0.846867688318686	-0.04137324995457001	0.2986560385777983	0.8511931009038611	-0.04302537565975577	0.2642308751410655	0.8710591602600062	-0.04900057880794074	0.3362765509458697	0.919141283174334
107	1.8135593220338984	0.27090708803132835	0.6505570536278394	1.0141015025482927	0.2380039574783391	0.6424738009608085	1.4067442582329484	0.27274946105845305	0.7949582123994334	1.8315267758474838	0.23263739097827513	0.6474291653917295	1.8668790967262534	0.29452632133654055	0.6792149225137675	1.8609744501347487	0.27999478300979086	0.9358169217496565	1.9081498773783327	0.04378464736424329	0.6521099572411053	1.01453676666689	0.06870256280119694	0.6670926570203889	1.4038404349837967	0.08789102715051803	0.870351615386079	1.8509389574404278	0.1013142265512709	0.6842257092982669	1.8766517064482544	0.059188864719423716	0.6854280045100176	1.8718834580138	0.10081605637857625	0.9250462132361397	1.893456958526678	0.10117063041044289	0.34783602818018405	0.4998085619432574	0.09151395604161354	0.21754882701631867	0.2775654865523375	0.0708353908521956	0.1895726227546532	0.422376035666148	0.2754187916766216	0.3515464730673603	0.5524136471681802	0.4005513715524435	0.547651842545059	0.7440043489758214	0.29072854843316615	0.3729511657082452	0.8189286910523095	0.18945314837310623	0.22759750216394034	0.8430898655557689	0.19345153233673726	0.2329404132707933	0.8589605468633023	0.23437748025598318	0.2960992965181634	0.8912643320371718	-0.044709209183405804	0.43249174536037066	0.5567740424819587	-0.09783951081397509	0.6013950586558611	0.7460208128191692	-0.07445779826084802	0.4075691226274649	0.8397273894998425	-0.03395725690408564	0.29727389828761625	0.8372036831443467	-0.04240749957083235	0.2646272952982802	0.8605242277500046	-0.050244580495280154	0.33348646969434487	0.9119312005596321
108	1.8305084745762712	0.27320164721389717	0.633460998986331	1.0050446056108147	0.24255668679704614	0.6437380132811481	1.3986127409001115	0.27339703303992346	0.7938291747014603	1.8222273173192232	0.22938134514971947	0.6373616718231467	1.862028629527811	0.2997955588814394	0.6803710456881652	1.8602377437702127	0.2784330816737051	0.9312655574396214	1.9016013681492452	0.046824402050387494	0.6362414325501281	1.0091278723401598	0.07517848128050005	0.6821243228332052	1.4070664499220609	0.0879878576202974	0.8716148083041093	1.8508683138880762	0.09614289323578033	0.669168752296303	1.8677107281416547	0.0580291786826546	0.682822887977838	1.8673205196348694	0.09884851171443594	0.9236038681213813	1.8804430688033753	0.09986652762433001	0.34470739153680235	0.49284735170967076	0.09083251533532816	0.21638903017869734	0.2715789625845769	0.07871243153833338	0.1988655759666462	0.41059829564887	0.2784402153934222	0.34901016208965147	0.5451200432672062	0.3976273420743458	0.5063012818453856	0.72733720354543	0.29098187347947513	0.38044806413956717	0.8115309272678701	0.19174100029763	0.25020207084248774	0.8319863864646961	0.1992165079272017	0.24121476120953433	0.8519485468035287	0.24008381428625972	0.31746185551604894	0.8874839765659305	-0.046631791117124496	0.41740105060361377	0.5435160220253744	-0.09372723958025879	0.6122446479471089	0.7455542261258631	-0.07230831016838779	0.3931854391598192	0.8286427340334667	-0.030912244777719082	0.29568848580843854	0.8281286540332784	-0.047468661664465034	0.27512477762467774	0.8442171503979665	-0.05403642255327706	0.34110312122628617	0.8975858366740672
109	1.847457627118644	0.27248077527272474	0.6316959400188714	0.9930106427734431	0.24288233890554384	0.6426697273967976	1.3901723023628272	0.27461206633719126	0.7925109599866512	1.809149654647669	0.23565804374446012	0.6495613697440439	1.8620032421003108	0.3002372784862872	0.6800968735638391	1.8599378528062784	0.28167112450328124	0.9161770293682252	1.8915144474118248	0.04777983870275839	0.6489441319477799	0.9976078447906915	0.07408641521778508	0.6798337247190438	1.4024489601726784	0.08887728403524921	0.8700029003009507	1.8459785330244993	0.09603744613702728	0.66847246354615	1.8665573297238054	0.05823892065474946	0.681530829981487	1.8577828816798478	0.09857336409529897	0.9215235732036136	1.8799839816467803	0.09910970469828048	0.3384270467235905	0.47936208989880497	0.0898788109029699	0.21357626949593222	0.2581079118882997	0.07420508829570165	0.19556167279666764	0.3949077849411188	0.27777829613473787	0.3478446547952191	0.531949549524149	0.40789664485325383	0.5035326793031192	0.710969668461392	0.2964065277503276	0.39067303174455875	0.8039116854498856	0.19301034095102396	0.23545091907548327	0.821635979725703	0.19254543248364825	0.228314186416452	0.8383364600973832	0.2294788882200318	0.2967426459546707	0.8761537589703987	-0.04368385924689638	0.4159734535287405	0.52868512995896	-0.10018107246413128	0.593483224769509	0.7239831632786521	-0.07416020114291799	0.3880318776979027	0.8205357930826593	-0.03195783169081132	0.29349911835142206	0.8170105861061945	-0.050964234882475375	0.2864309516068811	0.8401207356594143	-0.05464309493201089	0.33795893269125893	0.8834452848973008
110	1.8644067796610169	0.2775529063945459	0.6137967441190768	0.9834748568045079	0.2428873541156831	0.642843631550157	1.3858979783381302	0.2753186786937981	0.7914399679274062	1.8048127246358499	0.23668181235409363	0.6506505555119941	1.857324967958447	0.30099289154904846	0.6798817205257935	1.8593236565262559	0.2919313888998189	0.9456102709557926	1.8980129998245676	0.05325496702019846	0.6424631894415976	0.9880908771467557	0.08216119404499499	0.6644125555369524	1.3948461594734327	0.09446183089814708	0.8845807602412135	1.855016924320413	0.0939937027485721	0.6381562870340607	1.8464374115038038	0.05817976175065084	0.6808711299577456	1.8579130254444007	0.10742863252570434	0.9607358798831869	1.897919305776345	0.09845490677111501	0.33776893585696693	0.4697546930635468	0.08857069424642192	0.21008693878395063	0.24517680029918604	0.07337047570292032	0.19423425760600013	0.3819256063842299	0.27666338780057165	0.34646095694511947	0.5184710906325766	0.41366848666383416	0.5203622728140126	0.707535500497637	0.2952238607024678	0.3894407490983645	0.7966810213939907	0.19294989365035745	0.22787187785281582	0.7915162615857858	0.19879354544297673	0.23408946697734104	0.8127278294885325	0.23549934849161938	0.3037060784796862	0.8640885478159948	-0.04433236966500405	0.4146311316357048	0.5208730299269205	-0.10090403464780642	0.5862995857576667	0.6998327370326498	-0.07547904884832671	0.4054249882932415	0.8051337794124024	-0.03748697593800246	0.28560013576149684	0.7967139162702834	-0.04927061546429536	0.2733068190839612	0.8316206183702349	-0.05450508338555109	0.3372332188108119	0.8701404772286935
